# xmcd
#
# Track frame offsets: 
#        150
#        30707
#        59112
#        83047
#        103840
#        134562
#        157365
#        183020
#        212407
#        246627
#
# Disc length: 3721 seconds
#
# Revision: 3
# Processed by: cddbd v1.5.2PL0 Copyright (c) Steve Scherf et al.
# Submitted via: ExactAudioCopy v0.95b3
#
DISCID=950e870a
DTITLE=James Blood Ulmer - Blues Preacher
DYEAR=1993
DGENRE=Blues
TTITLE0=Cheering
TTITLE1=Alone To wonder
TTITLE2=Let Me Take You Home
TTITLE3=Who Let The Cat Out Of The Bag?
TTITLE4=Jazz Is The Teacher
TTITLE5=Justice For Us All
TTITLE6=Nobody But You
TTITLE7=Blues Alnight
TTITLE8=Get Up
TTITLE9=Angel
EXTD=
EXTT0=
EXTT1=
EXTT2=
EXTT3=
EXTT4=
EXTT5=
EXTT6=
EXTT7=
EXTT8=
EXTT9=
PLAYORDER=
